<?xml version="1.0" standalone="no"?>
<!DOCTYPE svg PUBLIC "-//W3C//DTD SVG 20010904//EN"
 "http://www.w3.org/TR/2001/REC-SVG-20010904/DTD/svg10.dtd">
<svg version="1.0" xmlns="http://www.w3.org/2000/svg"
 width="980.000000pt" height="980.000000pt" viewBox="0 0 980.000000 980.000000"
 preserveAspectRatio="xMidYMid meet">
<metadata>
Created by potrace 1.11, written by Peter Selinger 2001-2013
</metadata>
<g transform="translate(0.000000,980.000000) scale(0.100000,-0.100000)"
fill="#000000" stroke="none">
<path d="M4761 9785 c-364 -38 -698 -114 -1009 -229 -1824 -679 -2959 -2695
-3132 -5563 -132 -2199 813 -3514 2793 -3887 524 -99 1126 -132 1492 -82 1255
173 2666 959 3009 1676 103 214 24 444 -222 651 -336 283 -505 296 -792 64
-664 -539 -1441 -984 -1975 -1133 -224 -62 -260 -67 -520 -67 -262 0 -357 12
-591 74 -695 184 -1246 674 -1459 1298 -29 87 -31 99 -16 104 9 4 95 34 191
69 1078 383 2190 950 3005 1531 612 437 1068 881 1470 1434 450 618 723 1231
776 1744 16 152 6 589 -16 731 -49 312 -155 580 -313 790 -333 440 -862 689
-1672 786 -188 23 -833 28 -1019 9z m495 -1260 c254 -45 491 -165 678 -345
272 -261 384 -560 332 -881 -113 -685 -829 -1446 -2441 -2596 -513 -365 -1316
-903 -1431 -959 -115 -55 -207 -57 -230 -5 -36 83 -12 549 52 1001 134 951
433 1794 866 2443 473 710 1047 1174 1621 1312 192 46 395 57 553 30z"/>
<path d="M8433 3790 c-156 -28 -317 -135 -413 -275 -42 -61 -96 -177 -116
-250 -25 -92 -30 -285 -10 -385 57 -278 252 -502 492 -565 75 -19 223 -19 298
0 240 63 438 294 492 572 73 386 -134 781 -465 883 -75 24 -205 33 -278 20z"/>
</g>
</svg>
